<?xml version="1.0" encoding="UTF-8"?>
<svg viewBox="0 0 892 980" version="1.1" xmlns="http://www.w3.org/2000/svg" xmlns:xlink="http://www.w3.org/1999/xlink">
    <g id="Page-1" stroke="none" stroke-width="1" fill="none" fill-rule="evenodd">
        <g id="logout" fill-rule="nonzero" fill="#000000">
            <path d="M89.6,534.5 C89.6,402.6 161.3,287.4 267.8,225.8 L267.8,126 C110.5,194.8 0.5,351.9 0.5,534.5 C0.5,780.6 200,980 446,980 C692,980 891.5,780.6 891.5,534.5 C891.5,351.8 781.5,194.7 624.2,126 L624.2,225.8 C730.7,287.4 802.4,402.6 802.4,534.5 C802.4,731.3 642.9,890.9 446,890.9 C249.1,890.9 89.6,731.4 89.6,534.5 Z M446,0 C396.8,0 356.9,39.9 356.9,89.1 L356.9,445.5 C356.9,494.7 396.8,534.6 446,534.6 C495.2,534.6 535.1,494.7 535.1,445.5 L535.1,89.1 C535.1,39.9 495.2,0 446,0 Z" id="Shape"></path>
        </g>
    </g>
</svg>
