<?xml version="1.0" encoding="UTF-8"?>
<svg viewBox="0 0 710 497" version="1.1" xmlns="http://www.w3.org/2000/svg" xmlns:xlink="http://www.w3.org/1999/xlink">
    <g id="Page-1" stroke="none" stroke-width="1" fill="none" fill-rule="evenodd">
        <g id="logo">
            <polygon id="path94" fill="#FFFFFF" fill-rule="nonzero" points="664.149302 464.074018 41.7268239 464.074018 41.7268239 33.4667872 664.149302 33.4667872"></polygon>
            <path d="M98.2043039,87.9141958 L222.876317,87.9141958 C300.67891,87.9141958 346.376336,138.573698 346.376336,247.941805 C346.376336,364.411612 298.569886,411.046989 222.876317,411.046989 L98.2043039,411.046989 L98.2043039,87.9141958 Z M381.293991,87.9141958 L520.729671,87.9141958 C579.08177,87.9141958 608.375007,123.423208 608.375007,164.377008 C608.375007,218.114085 577.20687,236.34215 553.069522,241.550181 L553.069522,242.970561 C589.158609,247.705018 621.732583,273.508357 621.732583,322.984522 C621.49846,376.248025 583.300068,411.046989 512.058922,411.046989 L381.293991,411.046989 L381.293991,87.9141958 Z M175.303991,138.573698 L202.722329,138.573698 C247.013919,138.573698 270.448363,170.768661 270.448363,246.521425 C270.448363,333.400271 243.029996,359.440368 204.128448,359.440368 L175.303991,359.440368 L175.303991,138.573698 Z M457.690774,138.100408 L487.218135,138.100408 C517.448962,138.100408 529.869229,155.144597 529.869229,175.029828 C529.869229,199.175972 516.980153,215.983629 486.749607,215.983629 L457.690774,215.983629 L457.690774,138.100408 Z M457.690774,276.82269 L494.014266,276.82269 C529.869229,276.82269 539.477288,294.340423 539.477288,317.302946 C539.477288,344.053091 520.26089,359.440368 494.483047,359.440368 L457.690774,359.440368 L457.690774,276.82269 Z M73.1293651,0.798534925 L636.730935,0.798534925 C676.803945,0.798534925 709.377919,33.4667872 709.377919,73.9472983 L709.377919,423.35672 C709.377919,463.837231 676.803945,496.742242 636.730935,496.742242 L73.1293651,496.742242 C33.0561026,496.742242 0.716504776,463.837231 0.716504776,423.35672 L0.716504776,73.9472983 C0.716504776,33.4667872 33.0561026,0.798534925 73.1293651,0.798534925 Z M74.0666744,50.7479892 L636.02775,50.7479892 C648.448017,50.7479892 658.524884,60.927264 658.524884,73.4737533 L658.524884,423.830265 C658.524884,436.376754 648.448017,446.556001 636.02775,446.556001 L74.0666744,446.556001 C61.6464073,446.556001 51.5695677,436.376754 51.5695677,423.830265 L51.5695677,73.4737533 C51.5695677,60.927264 61.6464073,50.7479892 74.0666744,50.7479892 L74.0666744,50.7479892 Z" id="path96" fill="#EC1B2D"></path>
        </g>
    </g>
</svg>
