<?xml version="1.0" encoding="utf-8"?>
<!-- Svg Vector Icons : http://www.onlinewebfonts.com/icon -->
<!DOCTYPE svg PUBLIC "-//W3C//DTD SVG 1.1//EN" "http://www.w3.org/Graphics/SVG/1.1/DTD/svg11.dtd">
<svg version="1.1" xmlns="http://www.w3.org/2000/svg" xmlns:xlink="http://www.w3.org/1999/xlink" x="0px" y="0px" viewBox="0 0 1000 1000" enable-background="new 0 0 1000 1000" xml:space="preserve">
<metadata> Svg Vector Icons : http://www.onlinewebfonts.com/icon </metadata>
<g><path d="M500,10C229.4,10,10,229.4,10,500c0,270.6,219.4,490,490,490c270.6,0,490-219.4,490-490C990,229.4,770.6,10,500,10z M500,944.1C254.7,944.1,55.9,745.2,55.9,500S254.7,55.9,500,55.9c245.3,0,444.1,198.8,444.1,444.1C944.1,745.3,745.3,944.1,500,944.1z"/><path d="M500.6,253.5L500.6,253.5c80.1,0,133.4,54.7,143.7,74.6c32.1,61.9,30.9,92.4,11.5,147.3c-17,48.1-32.8,81.5-45.6,108.5c-12,25.4-22.4,47.3-29.3,71.7c-10.1,35.8-6.5,65.4,10.5,87.9c11.4,15.1,34.1,33.1,77.4,33.1c9.4,0,19.8-0.8,30.8-2.5c13.2-2,30.4-4.3,46.3-4.3c37,0,52.5,7.5,52.6,54.3v1.5c-0.2,0.4-0.5,1-0.8,1.7c-20.3,37.6-137.2,108.4-299.9,116.5c-3.9,0.2-7.8,0.3-11.7,0.3c-124.5,0-262.4-89-284.4-121.2l0.1-0.3c1.3-6.5,2.4-12.4,3-15.3l0,0c1.8-3.1,4.2-7.4,7.9-14.7c5.1-9.6,8.9-12.5,23.5-12.5c11.2,0,25.4,2.2,40.3,4.5c18.9,2.9,40.3,6.2,62.7,6.2c21.3,0,40.3-3,58.2-9c35.4-12.1,57.7-62.8,44.9-102.3c-11.5-35.8-33.1-62.9-54-89.2c-26.4-33.2-51.3-64.5-59.9-116.1c-22-131.9,63.2-188.3,70.9-193C433.4,262.8,467.5,253.5,500.6,253.5 M500.6,207.6c-37.6,0-79.4,9.5-124,33.7c-1.4,0.8-121.7,71-93.5,240.5C301,589,376.6,625.5,398.6,693.6c6.1,19-7.9,42-16,44.8c-14.3,4.9-28.8,6.6-43.3,6.6c-36.2,0-72.3-10.8-103-10.8c-26.4,0-49,7.9-64.4,37.4c-12.1,24.2-8.9,9.6-16.2,47.7c0,0.4,0,0.5,0,0.8c0,3,0,6,0,9.2c0,0.2,0,0.6,0,0.6v0.2C158.9,874.6,335.6,990,485.9,990c4.7,0,9.4-0.1,14.1-0.3c172.1-8.6,308.3-83.8,338.5-141.4c3-6.1,5.7-12.6,5.9-19.1c0,0,0,0,0.2,0c0-1-0.2-1.9-0.2-2.8c0,0,0.2-0.4,0.2-0.6c0-0.8-0.2-1-0.2-1.7c-0.1-81.9-47.5-100.2-98.5-100.2c-17.9,0-36.3,2.3-53.2,4.8c-8.9,1.3-16.8,2-23.9,2c-43.4,0-54.5-24.3-43.7-62.6c12.5-44.5,40.8-83.4,74-177.4c22.9-64.8,24.9-108.6-14-183.8C665.8,269.8,596.8,207.6,500.6,207.6L500.6,207.6z"/></g>
</svg>